<?xml version="1.0" encoding="UTF-8"?>
<svg id="a" data-name="Layer 1" xmlns="http://www.w3.org/2000/svg" width="516px" height="516px" viewBox="0 0 516 516">
  <path d="M86.841,159.195v195.699l.008-.009V159.195h-.008Zm0,0v195.699l.008-.009V159.195h-.008Zm0,0v195.699l.008-.009V159.195h-.008Zm0,0v195.699l.008-.009V159.195h-.008Zm0,0v195.699l.008-.009V159.195h-.008Zm0,0v195.699l.008-.009V159.195h-.008Zm0,0v195.699l.008-.009V159.195h-.008Zm0,0v195.699l.008-.009V159.195h-.008Zm0,0v195.699l.008-.009V159.195h-.008Z" fill="#fff"/>
  <path d="M83.489,159.187v198.607l.008,.972V159.195l-.008-.009Zm0,0v198.607l.008,.972V159.195l-.008-.009Zm0,0v198.607l.008,.972V159.195l-.008-.009Zm1.676-2.899l.008,.009,43.131-24.917-43.14,24.909Zm-1.676,2.899v198.607l.008,.972V159.195l-.008-.009Zm0,0v198.607l.008,.972V159.195l-.008-.009Z" fill="#fff"/>
  <path d="M430.835,106.479l43.131,24.909-43.131,24.909-43.148-24.909,43.148-24.909Zm-44.824,27.816l43.148,24.909v41.204l-43.148-24.582v-41.531Zm-79.929,89.807l78.261-45.368,43.148,24.573-121.409,71.249v-50.454Zm-92.974,97.632V34.493l43.131,24.909,.084,287.885-43.215-25.554ZM257.916,56.494l-43.131-24.909,43.131-24.892,43.14,24.892-43.14,24.909Zm1.768,348.376l124.66-71.978,43.14,24.909-167.8,96.878v-49.809Zm126.336-74.885v-51.325l43.14-24.774v101.008l-43.14-24.909Zm-129.695,74.885v49.809l-167.8-96.878,43.14-24.909,124.66,71.978Zm-126.336-74.885l-43.14,24.9-.008,.009V159.195h.008l43.131-24.909,.008,195.699ZM85.173,106.479l43.131,24.9-43.131,24.917-.008-.009-43.123-24.909,43.131-24.9Zm174.502,240.858l-.084-287.936,43.14-24.909v245.919l129.779-76.167v-45.042l43.131-24.909v249.371l-217.642,125.649L40.358,383.665l.008-249.387,43.123,24.909,.008,.009v199.57l174.502,100.765,174.511-100.765v-110.668l-172.835,99.241Z" fill="#fff"/>
  <polygon points="85.173 156.296 42.042 131.379 85.173 106.479 128.305 131.379 85.173 156.296" fill="#fff"/>
  <polygon points="257.92 56.503 214.789 31.586 257.92 6.686 301.052 31.586 257.92 56.503" fill="#fff"/>
  <polygon points="430.827 156.296 387.695 131.379 430.827 106.479 473.958 131.379 430.827 156.296" fill="#fff"/>
  <polygon points="40.366 134.278 83.498 159.195 83.498 358.765 258 459.53 432.511 358.765 432.511 248.097 259.676 347.337 259.592 59.402 302.731 34.493 302.731 280.412 432.511 204.245 432.511 159.203 475.642 134.295 475.642 383.665 258 509.314 40.358 383.665 40.366 134.278" fill="#fff"/>
  <polygon points="129.98 134.287 86.849 159.195 86.841 354.895 129.989 329.986 129.98 134.287" fill="#fff"/>
  <polygon points="88.525 357.802 131.664 332.893 256.324 404.871 256.324 454.68 88.525 357.802" fill="#fff"/>
  <polygon points="259.684 404.871 259.684 454.68 427.484 357.802 384.344 332.893 259.684 404.871" fill="#fff"/>
  <polygon points="386.02 278.661 429.159 253.886 429.159 354.895 386.02 329.986 386.02 278.661" fill="#fff"/>
  <polygon points="386.011 175.826 386.011 134.295 429.159 159.203 429.159 200.408 386.011 175.826" fill="#fff"/>
  <polygon points="384.344 178.733 427.492 203.307 306.083 274.555 306.083 224.101 384.344 178.733" fill="#fff"/>
  <polygon points="256.24 59.402 256.324 347.287 213.109 321.733 213.109 34.493 256.24 59.402" fill="#fff"/>
</svg>